<svg xmlns="http://www.w3.org/2000/svg" width="26" height="26" viewBox="0 0 26 26" fill="none">
    <path d="M3.61769 18.4163C6.60924 23.5978 13.2348 25.3732 18.4163 22.3817C20.5283 21.1623 22.0745 19.339 22.9625 17.256C24.2531 14.2286 24.1537 10.6525 22.3816 7.58303C20.6095 4.5136 17.5621 2.63945 14.2951 2.24345C12.047 1.97096 9.69504 2.39835 7.58297 3.61775C2.40146 6.6093 0.626149 13.2349 3.61769 18.4163Z" stroke="white" stroke-width="1.625"/>
    <path d="M18.3622 22.2876C18.3622 22.2876 17.345 15.1472 15.1671 11.375C12.9892 7.60281 7.63776 3.71232 7.63776 3.71232" stroke="white" stroke-width="1.625" stroke-linecap="round"/>
    <path d="M23.6857 13.6287C17.8238 12.3427 9.81391 17.7103 8.2088 22.5525" stroke="white" stroke-width="1.625" stroke-linecap="round"/>
    <path d="M17.7819 3.47626C16.17 8.26575 8.31396 13.5549 2.47949 12.4058" stroke="white" stroke-width="1.625" stroke-linecap="round"/>
</svg>