<svg xmlns="http://www.w3.org/2000/svg" width="18" height="18" viewBox="0 0 18 18" fill="none">
    <g opacity="0.6">
        <path d="M6.30001 12.4904L9.00001 9.79038L11.7 12.4904L12.4904 11.7L9.79038 9.00001L12.4904 6.30001L11.7 5.50964L9.00001 8.20964L6.30001 5.50964L5.50964 6.30001L8.20964 9.00001L5.50964 11.7L6.30001 12.4904ZM9.00127 16.125C8.01582 16.125 7.08954 15.938 6.22244 15.564C5.35533 15.19 4.60107 14.6824 3.95966 14.0413C3.31823 13.4002 2.81044 12.6462 2.43627 11.7795C2.06211 10.9128 1.87503 9.98672 1.87503 9.00127C1.87503 8.01582 2.06203 7.08954 2.43603 6.22244C2.81003 5.35533 3.31759 4.60107 3.95872 3.95966C4.59986 3.31823 5.35379 2.81044 6.22051 2.43628C7.08722 2.06211 8.01331 1.87503 8.99876 1.87503C9.98421 1.87503 10.9105 2.06203 11.7776 2.43603C12.6447 2.81003 13.399 3.31759 14.0404 3.95872C14.6818 4.59986 15.1896 5.35379 15.5638 6.22051C15.9379 7.08722 16.125 8.01331 16.125 8.99876C16.125 9.98421 15.938 10.9105 15.564 11.7776C15.19 12.6447 14.6824 13.399 14.0413 14.0404C13.4002 14.6818 12.6462 15.1896 11.7795 15.5638C10.9128 15.9379 9.98672 16.125 9.00127 16.125Z" fill="white"/>
    </g>
</svg>