<svg xmlns="http://www.w3.org/2000/svg" width="22" height="22" viewBox="0 0 22 22" fill="none">
    <g opacity="0.8">
        <path d="M17.9138 18.8622L12.1564 13.1048C11.6981 13.4832 11.171 13.7794 10.5752 13.9932C9.97932 14.2071 9.36292 14.3141 8.72596 14.3141C7.15923 14.3141 5.83325 13.7716 4.74804 12.6867C3.66283 11.6017 3.12022 10.2761 3.12022 8.70978C3.12022 7.14344 3.66269 5.81732 4.74763 4.73142C5.83256 3.64554 7.1582 3.1026 8.72454 3.1026C10.2909 3.1026 11.617 3.64521 12.7029 4.73042C13.7888 5.81563 14.3317 7.1416 14.3317 8.70834C14.3317 9.36293 14.2218 9.98814 14.0021 10.584C13.7823 11.1798 13.4891 11.6981 13.1224 12.1388L18.8798 17.8962L17.9138 18.8622ZM8.72596 12.9391C9.90706 12.9391 10.9075 12.5293 11.7272 11.7096C12.5469 10.8898 12.9567 9.88943 12.9567 8.70834C12.9567 7.52724 12.5469 6.52684 11.7272 5.70713C10.9075 4.88741 9.90706 4.47755 8.72596 4.47755C7.54487 4.47755 6.54446 4.88741 5.72475 5.70713C4.90505 6.52684 4.4952 7.52724 4.4952 8.70834C4.4952 9.88943 4.90505 10.8898 5.72475 11.7096C6.54446 12.5293 7.54487 12.9391 8.72596 12.9391Z" fill="white"/>
    </g>
</svg>