<svg xmlns="http://www.w3.org/2000/svg" width="26" height="26" viewBox="0 0 26 26" fill="none">
    <path fill-rule="evenodd" clip-rule="evenodd" d="M13.4884 2.98943C11.6291 2.89687 9.72309 3.32076 7.98996 4.32138C6.25766 5.32153 4.93693 6.7608 4.08724 8.41741C4.48287 8.67034 5.02502 9.04951 5.64917 9.57359C6.92355 10.6437 8.5422 12.32 9.95102 14.7601C11.3599 17.2003 12.0023 19.4402 12.2917 21.079C12.4335 21.8816 12.4909 22.5407 12.5121 23.0098C14.3716 23.1023 16.2785 22.6782 18.0108 21.6779C19.7439 20.6774 21.064 19.2387 21.9135 17.5822C21.5178 17.3292 20.9756 16.9501 20.3513 16.4258C19.0769 15.3558 17.4582 13.6795 16.0493 11.2393C14.6404 8.79914 13.9981 6.55916 13.7086 4.92047C13.5668 4.11774 13.5096 3.45854 13.4884 2.98943ZM15.1288 3.20738C15.1557 3.58561 15.2085 4.06954 15.3088 4.6378C15.5709 6.12117 16.1571 8.176 17.4565 10.4268C18.7561 12.6776 20.2425 14.2127 21.3962 15.1814C21.8382 15.5524 22.2309 15.8401 22.5449 16.0525C23.3748 13.4559 23.1481 10.5344 21.6787 7.98927C20.2093 5.44413 17.7926 3.78713 15.1288 3.20738ZM10.8717 22.7919C10.8447 22.4137 10.7919 21.9298 10.6916 21.3616C10.4295 19.8783 9.84324 17.8234 8.54373 15.5726C7.24423 13.3219 5.75782 11.7867 4.60422 10.8181C4.1624 10.4471 3.76976 10.1595 3.45575 9.94701C2.62652 12.5424 2.85245 15.4646 4.32208 18.0101C5.7917 20.5556 8.20944 22.2123 10.8717 22.7919ZM7.17746 2.91409C9.44713 1.6037 11.9768 1.1439 14.3936 1.43685C17.9033 1.86227 21.1807 3.87668 23.086 7.17677C24.9913 10.4769 25.0972 14.3223 23.7107 17.5746C22.756 19.814 21.093 21.7749 18.8233 23.0853C13.2532 26.3012 6.1307 24.3928 2.91479 18.8226C-0.30112 13.2525 1.60735 6.13 7.17746 2.91409Z" fill="white"/>
</svg>