<svg xmlns="http://www.w3.org/2000/svg" width="27" height="26" viewBox="0 0 27 26" fill="none">
    <path d="M20.6013 15.7132C20.9031 15.3812 20.8786 14.8673 20.5466 14.5654C20.2145 14.2636 19.7007 14.2881 19.3988 14.6201L20.6013 15.7132ZM23.5128 11.6378L24.0921 11.068L24.0874 11.0633L23.5128 11.6378ZM23.7409 13.0282C24.0556 13.3481 24.57 13.3522 24.8899 13.0375C25.2098 12.7229 25.214 12.2084 24.8993 11.8885L23.7409 13.0282ZM6.71044 20.6297C6.26171 20.6297 5.89794 20.9935 5.89794 21.4422C5.89794 21.8909 6.26171 22.2547 6.71044 22.2547V20.6297ZM4.29169 17.0625C3.84296 17.0625 3.47919 17.4263 3.47919 17.875C3.47919 18.3237 3.84296 18.6875 4.29169 18.6875V17.0625ZM9.37502 3.63539C9.54761 3.22118 9.35173 2.74549 8.93752 2.57289C8.52331 2.40031 8.04761 2.59618 7.87502 3.0104L9.37502 3.63539ZM7.87502 16.5625C8.04761 16.9767 8.52331 17.1726 8.93752 17C9.35173 16.8274 9.54761 16.3517 9.37502 15.9375L7.87502 16.5625ZM12.4167 6.22916C11.968 6.22916 11.6042 6.59294 11.6042 7.04166C11.6042 7.49039 11.968 7.85416 12.4167 7.85416V6.22916ZM22.0324 18.3257C22.2812 18.6991 22.7857 18.7999 23.159 18.551C23.5324 18.3022 23.6333 17.7976 23.3844 17.4243L22.0324 18.3257ZM13.5 23.0208C7.96567 23.0208 3.47919 18.5343 3.47919 13H1.85419C1.85419 19.4319 7.0682 24.6458 13.5 24.6458V23.0208ZM23.5209 13C23.5209 18.5343 19.0343 23.0208 13.5 23.0208V24.6458C19.9319 24.6458 25.1459 19.4319 25.1459 13H23.5209ZM13.5 2.97916C19.0343 2.97916 23.5209 7.46565 23.5209 13H25.1459C25.1459 6.56818 19.9319 1.35416 13.5 1.35416V2.97916ZM13.5 1.35416C7.0682 1.35416 1.85419 6.56818 1.85419 13H3.47919C3.47919 7.46565 7.96567 2.97916 13.5 2.97916V1.35416ZM13.5 13.8125H13.5994V12.1875H13.5V13.8125ZM12.8587 12.5011L12.3925 13.1005L13.6752 14.0982L14.1414 13.4989L12.8587 12.5011ZM12.75 1.85417L12.0071 3.63717L13.5071 4.26218L14.25 2.47916L12.75 1.85417ZM19.3988 14.6201L19.0833 14.9672L20.2857 16.0603L20.6013 15.7132L19.3988 14.6201ZM22.9337 12.2076L23.7409 13.0282L24.8993 11.8885L24.0921 11.068L22.9337 12.2076ZM19.0833 14.9672C15.9741 18.3873 11.291 20.6297 6.71044 20.6297V22.2547C11.7895 22.2547 16.897 19.7878 20.2857 16.0603L19.0833 14.9672ZM12.0071 3.63717C10.6729 6.83917 10.9725 10.4891 12.811 13.4306L14.189 12.5694C12.6296 10.0742 12.3754 6.97823 13.5071 4.26218L12.0071 3.63717ZM12.3925 13.1005C10.4482 15.6003 7.45864 17.0625 4.29169 17.0625V18.6875C7.96009 18.6875 11.4231 16.9938 13.6752 14.0982L12.3925 13.1005ZM7.87502 3.0104C6.05835 7.37039 6.05835 12.2024 7.87502 16.5625L9.37502 15.9375C7.72502 11.9775 7.72502 7.5954 9.37502 3.63539L7.87502 3.0104ZM12.4167 7.85416C16.3631 7.85416 20.1478 9.42185 22.9383 12.2124L24.0874 11.0633C20.9921 7.96807 16.794 6.22916 12.4167 6.22916V7.85416ZM13.5994 13.8125C16.988 13.8125 20.1526 15.5061 22.0324 18.3257L23.3844 17.4243C21.2033 14.1527 17.5314 12.1875 13.5994 12.1875V13.8125Z" fill="white"/>
</svg>