<svg xmlns="http://www.w3.org/2000/svg" width="15" height="15" viewBox="0 0 15 15" fill="none">
    <g opacity="0.8">
        <path d="M2.0625 13.7344C1.8125 13.7344 1.59375 13.6406 1.40625 13.4531C1.21875 13.2656 1.125 13.0469 1.125 12.7969V3.375H2.0625V12.7969H9.46875V13.7344H2.0625ZM3.9375 11.8594C3.6875 11.8594 3.46875 11.7656 3.28125 11.5781C3.09375 11.3906 3 11.1719 3 10.9219V2.17188C3 1.92188 3.09375 1.70312 3.28125 1.51562C3.46875 1.32812 3.6875 1.23438 3.9375 1.23438H10.8125C11.0625 1.23438 11.2812 1.32812 11.4687 1.51562C11.6562 1.70312 11.75 1.92188 11.75 2.17188V10.9219C11.75 11.1719 11.6562 11.3906 11.4687 11.5781C11.2812 11.7656 11.0625 11.8594 10.8125 11.8594H3.9375ZM3.9375 10.9219H10.8125V2.17188H3.9375V10.9219Z" fill="white"/>
    </g>
</svg>